<?xml version="1.0" encoding="UTF-8" standalone="no" ?>
<!DOCTYPE svg PUBLIC "-//W3C//DTD SVG 1.1//EN" "http://www.w3.org/Graphics/SVG/1.1/DTD/svg11.dtd">
<svg xmlns="http://www.w3.org/2000/svg" xmlns:xlink="http://www.w3.org/1999/xlink" version="1.1" width="1080" height="1080" viewBox="0 0 1080 1080" xml:space="preserve">
<desc>Created with Fabric.js 4.2.0</desc>
<defs>
</defs>
<rect x="0" y="0" width="100%" height="100%" fill="transparent"></rect>
<g transform="matrix(1 0 0 1 540 540)" id="b8aa674a-b9af-47b6-b83d-8259155a0fee"  >
</g>
<g transform="matrix(1 0 0 1 540 540)" id="699cf512-3448-4978-9f69-c85d3bec3974"  >
<rect style="stroke: none; stroke-width: 1; stroke-dasharray: none; stroke-linecap: butt; stroke-dashoffset: 0; stroke-linejoin: miter; stroke-miterlimit: 4; fill: rgb(255,255,255); fill-opacity: 0; fill-rule: nonzero; opacity: 1;" vector-effect="non-scaling-stroke"  x="-540" y="-540" rx="0" ry="0" width="1080" height="1080" />
</g>
<g transform="matrix(1.28 0 0 1.28 382.54 539.94)"  >
<path style="stroke: none; stroke-width: 1; stroke-dasharray: none; stroke-linecap: butt; stroke-dashoffset: 0; stroke-linejoin: miter; stroke-miterlimit: 4; fill: rgb(118,82,139); fill-rule: nonzero; opacity: 1;" vector-effect="non-scaling-stroke"  transform=" translate(-50, -1002.36)" d="M 45.719885 957.36164 L 48.906394999999996 996.02758 C 48.895995 996.0295799999999 48.885695 996.0325799999999 48.875195 996.0345799999999 C 48.871195 996.0353499999999 48.867194999999995 996.0365799999998 48.863495 996.0375799999999 C 48.817195 996.04658 48.770495 996.0529799999999 48.724385 996.06228 C 48.720385 996.06304 48.716384999999995 996.0642799999999 48.712785 996.06528 C 48.663484999999994 996.07528 48.614884999999994 996.08668 48.565864999999995 996.0977800000001 C 48.559864999999995 996.09873 48.555465 996.1007800000001 48.550264999999996 996.1017800000001 C 48.303365 996.1583800000001 48.059574999999995 996.22846 47.820915 996.3137 C 47.808815 996.3187 47.796615 996.3227 47.784515 996.3267000000001 C 47.771415 996.3317000000001 47.758514999999996 996.3357000000001 47.745515 996.3410000000001 L 31.214885 961.2789400000001 L 23.788784999999997 965.5328200000001 L 45.877285 997.4200900000001 C 45.788485 997.4938900000001 45.701035 997.5699700000001 45.615975 997.6489 C 45.608975 997.6559 45.602174999999995 997.6619000000001 45.595175 997.6684 C 45.567375 997.6944 45.540575 997.7212000000001 45.513175 997.7477 C 45.502374999999994 997.7581 45.491375 997.7684 45.480675 997.7789 C 45.453675 997.8054000000001 45.426674999999996 997.8324 45.400075 997.8595 C 45.270485 997.99118 45.146165 998.128 45.029555 998.26903 L 13.182585000000003 976.16885 L 8.877995000000002 983.56635 L 43.956985 1000.13989 C 43.953985 1000.14989 43.950985 1000.15589 43.947985 1000.16489 C 43.937785000000005 1000.19289 43.927885 1000.21989 43.918085000000005 1000.24789 C 43.91408500000001 1000.2598899999999 43.910085 1000.27089 43.906485 1000.28289 C 43.896485000000006 1000.31189 43.885985000000005 1000.33989 43.876585000000006 1000.36889 C 43.868585 1000.39189 43.86168500000001 1000.41489 43.854485000000004 1000.4378899999999 C 43.843785000000004 1000.4718899999999 43.83338500000001 1000.5058899999999 43.823285000000006 1000.5392899999999 C 43.818285 1000.5542899999999 43.814285000000005 1000.5682899999999 43.81028500000001 1000.5832899999999 C 43.80128500000001 1000.61529 43.791585000000005 1000.6462899999999 43.78298500000001 1000.67829 C 43.77798500000001 1000.69729 43.77398500000001 1000.71529 43.76868500000001 1000.73429 C 43.761685000000014 1000.75729 43.75638500000001 1000.78129 43.75048500000001 1000.80429 C 43.746485000000014 1000.81929 43.743485000000014 1000.83329 43.740085000000015 1000.84829 C 43.70598500000001 1000.98799 43.67618500000002 1001.12749 43.651685000000015 1001.26819 L 5.000045000000014 998.08429 L 5.029945000000014 1006.64149 L 43.64647500000001 1003.42769 C 43.71397500000001 1003.82979 43.81917500000001 1004.22459 43.96109500000001 1004.60689 L 8.899015000000006 1021.13619 L 13.152905000000006 1028.56359 L 45.04016500000001 1006.47379 C 45.29323500000001 1006.77819 45.57735500000001 1007.06229 45.89043500000001 1007.32009 L 23.78891500000001 1039.16969 L 31.18641500000001 1043.4742899999999 L 47.75995500000001 1008.3939899999999 C 48.13649500000001 1008.5330899999999 48.520125000000014 1008.63429 48.90663500000001 1008.69949 L 45.72011500000001 1047.3628899999999 L 54.27859500000001 1047.33289 L 51.06348500000001 1008.69549 C 51.08988500000001 1008.69549 51.116485000000004 1008.68549 51.14278500000001 1008.6814899999999 C 51.17488500000001 1008.67149 51.20698500000001 1008.66949 51.238985000000014 1008.6634899999999 C 51.27248500000001 1008.6534899999999 51.305785000000014 1008.6494899999999 51.339095000000015 1008.64249 C 51.639085000000016 1008.57949 51.93108500000002 1008.49659 52.214055000000016 1008.39289 L 68.78886500000002 1043.47449 L 76.18507500000001 1039.1698900000001 L 54.08357500000001 1007.3202900000001 C 54.39208500000001 1007.0661900000001 54.67622500000001 1006.7831900000001 54.93252500000001 1006.4765900000001 L 86.81979500000001 1028.5663900000002 L 91.07367500000001 1021.1389900000001 L 56.019405000000006 1004.6121900000002 C 56.16133500000001 1004.2327900000001 56.268325000000004 1003.8360900000001 56.336625000000005 1003.4265900000001 L 94.970055 1006.6416900000002 L 94.999955 998.0844700000001 L 56.331415 1001.2696900000001 C 56.264015 1000.8772900000001 56.161035 1000.4966900000001 56.025905 1000.1320900000001 L 91.094475 983.5637800000001 L 86.789895 976.16628 L 54.945525 998.26518 C 54.916825 998.23058 54.889025000000004 998.19638 54.859725000000005 998.16248 C 54.75801500000001 998.0447399999999 54.651075000000006 997.93189 54.541195 997.8218499999999 C 54.540255 997.8208999999999 54.539195 997.8188499999999 54.538195 997.8178499999999 C 54.504095 997.7837499999999 54.469095 997.7498499999999 54.434195 997.71643 C 54.432195 997.71443 54.429195 997.71143 54.427195000000005 997.70943 C 54.39219500000001 997.67613 54.35619500000001 997.64313 54.320585 997.61063 C 54.318585 997.6086300000001 54.316585 997.60563 54.313585 997.6036300000001 C 54.277885000000005 997.57113 54.242185000000006 997.54033 54.20567500000001 997.50873 C 54.203675000000004 997.5067300000001 54.20167500000001 997.50373 54.19867500000001 997.5017300000001 C 54.16517500000001 997.4726300000001 54.130075000000005 997.4442300000001 54.09597500000001 997.4159300000001 L 76.18315500000001 965.5312400000001 L 68.75704500000002 961.2773700000001 L 52.22902500000002 996.3342400000001 C 51.85486500000002 996.1954900000002 51.464865000000025 996.0920800000001 51.061545000000024 996.0248100000001 L 54.27664500000002 957.3913900000001 L 45.71816500000003 957.3614900000001 z" stroke-linecap="round" />
</g>
<g transform="matrix(0.06 0 0 -0.06 597.63 504.57)"  >
<path style="stroke: none; stroke-width: 1; stroke-dasharray: none; stroke-linecap: butt; stroke-dashoffset: 0; stroke-linejoin: miter; stroke-miterlimit: 4; fill: rgb(118,82,139); fill-rule: nonzero; opacity: 1;" vector-effect="non-scaling-stroke"  transform=" translate(-2331, -358.5)" d="M 29 700 L 503 700 Q 502 660 499 619 Q 497 579 492 538 L 466 538 L 425 648 L 207 648 L 207 383 L 370 383 L 409 457 L 434 457 Q 440 358 434 255 L 409 255 L 370 331 L 207 331 L 207 52 L 437 52 L 486 172 L 511 172 Q 518 130 521 87 Q 524 44 522 0 L 29 0 L 29 29 Q 64 45 111 53 L 111 646 Q 91 650 70 656 Q 49 663 29 671 L 29 700 Z M 845 25 L 845 0 L 623 0 L 623 25 Q 638 33 654 38 Q 670 44 689 49 L 689 442 L 623 450 L 623 476 Q 652 488 686 497 Q 720 506 754 512 L 779 512 L 779 49 Q 799 44 815 38 Q 831 33 845 25 Z M 670 670 Q 670 697 687 713 Q 705 729 734 729 Q 763 729 780 713 Q 797 697 797 670 Q 797 643 780 627 Q 763 612 734 612 Q 705 612 687 627 Q 670 643 670 670 Z M 1431 25 L 1431 0 L 1217 0 L 1217 25 Q 1227 31 1241 37 Q 1256 44 1276 49 L 1276 280 Q 1276 320 1272 352 Q 1269 384 1259 405 Q 1250 427 1232 438 Q 1214 450 1185 450 Q 1163 450 1144 441 Q 1126 432 1111 417 Q 1097 402 1086 383 Q 1076 364 1070 343 L 1070 49 Q 1086 44 1100 38 Q 1115 33 1129 25 L 1129 0 L 914 0 L 914 25 Q 928 32 945 38 Q 962 44 980 49 L 980 442 L 914 450 L 914 476 Q 946 490 979 498 Q 1013 507 1045 512 L 1070 512 L 1070 399 L 1071 399 Q 1087 446 1125 479 Q 1164 512 1221 512 Q 1245 512 1267 507 Q 1289 502 1308 488 Q 1327 475 1340 451 Q 1353 427 1359 389 Q 1377 444 1417 478 Q 1457 512 1517 512 Q 1554 512 1581 502 Q 1609 493 1627 469 Q 1645 445 1653 404 Q 1662 363 1662 300 L 1662 49 Q 1696 43 1728 25 L 1728 0 L 1513 0 L 1513 25 Q 1543 41 1572 49 L 1572 298 Q 1572 334 1568 362 Q 1565 390 1555 409 Q 1545 429 1527 439 Q 1509 450 1479 450 Q 1431 450 1404 417 Q 1378 384 1366 333 L 1366 49 Q 1401 39 1431 25 Z M 2178 86 L 2192 70 Q 2184 53 2167 38 Q 2150 23 2128 12 Q 2106 1 2080 -6 Q 2054 -12 2027 -12 Q 1968 -12 1923 6 Q 1878 25 1848 59 Q 1818 94 1802 142 Q 1787 190 1787 250 Q 1787 378 1846 445 Q 1905 512 2013 512 Q 2048 512 2082 502 Q 2116 493 2142 471 Q 2169 449 2185 412 Q 2202 376 2202 322 Q 2202 305 2200 287 Q 2199 270 2195 250 L 1883 250 Q 1883 208 1893 171 Q 1904 135 1925 108 Q 1946 81 1978 65 Q 2010 50 2053 50 Q 2088 50 2124 60 Q 2160 70 2178 86 Z M 2009 468 Q 1952 468 1922 429 Q 1892 391 1886 294 L 2106 294 Q 2107 303 2107 311 Q 2108 320 2108 328 Q 2108 392 2084 430 Q 2060 468 2009 468 Z M 2826 25 L 2826 0 L 2611 0 L 2611 25 Q 2638 39 2670 49 L 2670 286 Q 2670 362 2648 406 Q 2626 450 2568 450 Q 2543 450 2521 441 Q 2500 432 2483 416 Q 2467 401 2455 381 Q 2443 362 2436 341 L 2436 49 Q 2467 43 2496 25 L 2496 0 L 2280 0 L 2280 25 Q 2305 38 2346 49 L 2346 442 L 2280 450 L 2280 476 Q 2306 487 2340 496 Q 2374 505 2411 512 L 2436 512 L 2436 400 L 2437 400 Q 2458 446 2497 479 Q 2537 512 2593 512 Q 2633 512 2664 502 Q 2696 493 2717 469 Q 2738 445 2749 404 Q 2760 364 2760 302 L 2760 49 Q 2800 42 2826 25 Z M 2858 450 L 2858 476 Q 2896 500 2938 510 L 2938 595 Q 2951 606 2968 614 Q 2986 623 3003 631 L 3028 631 L 3028 500 L 3178 500 L 3178 450 L 3028 450 L 3028 160 Q 3028 100 3047 75 Q 3066 50 3104 50 Q 3122 50 3149 52 Q 3176 55 3195 62 L 3202 47 Q 3194 38 3179 28 Q 3165 18 3146 9 Q 3128 0 3106 -6 Q 3084 -12 3061 -12 Q 3001 -12 2969 22 Q 2938 56 2938 132 L 2938 450 L 2858 450 Z M 3291 198 Q 3291 261 3294 321 Q 3297 382 3297 442 L 3231 450 L 3231 476 Q 3263 488 3296 497 Q 3330 506 3362 512 L 3387 512 Q 3387 437 3384 363 Q 3381 289 3381 216 Q 3381 177 3385 146 Q 3390 115 3401 94 Q 3413 73 3433 61 Q 3453 50 3484 50 Q 3529 50 3559 82 Q 3590 115 3607 167 L 3607 442 L 3542 450 L 3542 476 Q 3573 488 3606 497 Q 3640 506 3672 512 L 3697 512 L 3697 57 L 3763 49 L 3763 28 Q 3734 15 3704 5 Q 3675 -5 3643 -10 L 3618 -10 L 3611 109 L 3607 109 Q 3602 88 3589 66 Q 3577 45 3557 27 Q 3537 10 3511 -1 Q 3486 -12 3456 -12 Q 3416 -12 3385 -3 Q 3355 7 3334 31 Q 3313 55 3302 95 Q 3291 136 3291 198 Z M 4336 25 L 4336 0 L 4122 0 L 4122 25 Q 4132 31 4146 37 Q 4161 44 4181 49 L 4181 280 Q 4181 320 4177 352 Q 4174 384 4164 405 Q 4155 427 4137 438 Q 4119 450 4090 450 Q 4068 450 4049 441 Q 4031 432 4016 417 Q 4002 402 3991 383 Q 3981 364 3975 343 L 3975 49 Q 3991 44 4005 38 Q 4020 33 4034 25 L 4034 0 L 3819 0 L 3819 25 Q 3833 32 3850 38 Q 3867 44 3885 49 L 3885 442 L 3819 450 L 3819 476 Q 3851 490 3884 498 Q 3918 507 3950 512 L 3975 512 L 3975 399 L 3976 399 Q 3992 446 4030 479 Q 4069 512 4126 512 Q 4150 512 4172 507 Q 4194 502 4213 488 Q 4232 475 4245 451 Q 4258 427 4264 389 Q 4282 444 4322 478 Q 4362 512 4422 512 Q 4459 512 4486 502 Q 4514 493 4532 469 Q 4550 445 4558 404 Q 4567 363 4567 300 L 4567 49 Q 4601 43 4633 25 L 4633 0 L 4418 0 L 4418 25 Q 4448 41 4477 49 L 4477 298 Q 4477 334 4473 362 Q 4470 390 4460 409 Q 4450 429 4432 439 Q 4414 450 4384 450 Q 4336 450 4309 417 Q 4283 384 4271 333 L 4271 49 Q 4306 39 4336 25 Z" stroke-linecap="round" />
</g>
<g transform="matrix(0.03 0 0 -0.03 546.46 568.27)"  >
<path style="stroke: none; stroke-width: 1; stroke-dasharray: none; stroke-linecap: butt; stroke-dashoffset: 0; stroke-linejoin: miter; stroke-miterlimit: 4; fill: rgb(118,82,139); fill-rule: nonzero; opacity: 0.71;" vector-effect="non-scaling-stroke"  transform=" translate(-2144, -221.5)" d="M 482 152 Q 482 154 486 154 Q 489 154 491 152 Q 494 151 494 150 Q 484 78 484 15 Q 484 7 481 3 Q 478 0 469 0 L 43 0 Q 40 0 40 6 Q 40 12 43 12 Q 79 12 95 17 Q 111 22 117 36 Q 123 51 123 81 L 123 544 Q 123 574 117 588 Q 111 602 94 607 Q 78 613 43 613 Q 40 613 40 619 Q 40 625 43 625 L 451 625 Q 461 625 461 616 L 463 490 Q 463 487 457 486 Q 452 486 451 489 Q 444 544 412 572 Q 380 601 328 601 L 277 601 Q 233 601 218 588 Q 203 576 203 540 L 203 337 L 313 337 Q 364 337 388 354 Q 412 372 412 409 Q 412 411 417 411 Q 423 411 423 409 L 422 325 L 423 280 Q 425 248 425 230 Q 425 228 419 228 Q 413 228 413 230 Q 413 273 388 293 Q 364 314 310 314 L 203 314 L 203 85 Q 203 49 216 36 Q 230 23 271 23 L 336 23 Q 393 23 430 56 Q 468 90 482 152 Z M 980 386 Q 982 386 982 380 Q 982 374 980 374 Q 953 374 934 356 Q 915 338 898 295 L 774 1 Q 772 -4 763 -4 Q 754 -4 752 1 L 607 303 Q 587 346 572 360 Q 558 374 538 374 Q 535 374 535 380 Q 535 386 538 386 Q 557 386 568 385 L 615 384 L 685 385 Q 700 386 727 386 Q 730 386 730 380 Q 730 374 727 374 Q 668 374 668 351 Q 668 343 672 335 L 790 92 L 876 299 Q 883 320 883 330 Q 883 374 808 374 Q 806 374 806 380 Q 806 386 808 386 Q 835 386 849 385 L 909 384 L 946 385 Q 957 386 980 386 Z M 1348 59 L 1349 59 Q 1352 59 1354 55 Q 1357 52 1355 49 Q 1320 17 1283 2 Q 1247 -12 1205 -12 Q 1145 -12 1101 14 Q 1058 41 1035 85 Q 1013 129 1013 180 Q 1013 239 1041 288 Q 1070 338 1120 366 Q 1171 395 1232 395 Q 1288 395 1319 368 Q 1350 342 1350 296 Q 1350 271 1339 271 L 1291 271 L 1094 269 Q 1090 249 1090 220 Q 1090 134 1131 81 Q 1173 28 1246 28 Q 1304 28 1348 59 Z M 1197 375 Q 1160 375 1134 351 Q 1108 328 1097 285 L 1269 289 Q 1268 329 1249 352 Q 1230 375 1197 375 Z M 1672 395 Q 1695 395 1715 381 Q 1735 368 1735 349 Q 1735 334 1725 323 Q 1715 313 1698 313 Q 1688 313 1681 316 Q 1674 320 1669 324 Q 1664 329 1662 330 Q 1654 338 1646 342 Q 1639 347 1628 347 Q 1616 347 1602 337 Q 1588 328 1560 296 L 1560 81 Q 1560 52 1567 37 Q 1575 23 1595 17 Q 1615 12 1655 12 Q 1658 12 1658 6 Q 1658 0 1655 0 Q 1622 0 1602 1 L 1526 2 L 1470 1 Q 1456 0 1432 0 Q 1429 0 1429 6 Q 1429 12 1432 12 Q 1468 12 1479 25 Q 1491 39 1491 81 L 1491 276 Q 1491 309 1483 323 Q 1476 338 1458 338 Q 1439 338 1405 324 L 1403 324 Q 1400 324 1398 329 Q 1397 334 1400 335 L 1524 394 Q 1526 395 1530 395 Q 1540 395 1549 373 Q 1559 351 1560 315 Q 1601 361 1625 378 Q 1650 395 1672 395 Z M 2192 386 Q 2195 386 2195 380 Q 2195 374 2192 374 Q 2164 374 2144 353 Q 2125 333 2109 288 L 1990 -28 Q 1954 -124 1921 -179 Q 1888 -234 1853 -258 Q 1819 -281 1776 -281 Q 1752 -281 1737 -270 Q 1722 -259 1722 -239 Q 1722 -222 1732 -213 Q 1743 -203 1758 -203 Q 1771 -203 1779 -207 Q 1787 -210 1798 -216 Q 1809 -222 1815 -225 Q 1822 -228 1833 -228 Q 1857 -228 1877 -208 Q 1898 -188 1921 -142 Q 1944 -95 1976 -10 L 1821 303 Q 1798 347 1786 360 Q 1774 374 1755 374 Q 1753 374 1753 380 Q 1753 386 1755 386 L 1792 385 Q 1805 384 1828 384 L 1893 385 Q 1908 386 1934 386 Q 1936 386 1936 380 Q 1936 374 1934 374 Q 1907 374 1893 369 Q 1879 364 1879 352 Q 1879 344 1884 335 L 2011 74 L 2085 286 Q 2093 312 2093 326 Q 2093 351 2075 362 Q 2058 374 2021 374 Q 2019 374 2019 380 Q 2019 386 2021 386 Q 2048 386 2062 385 L 2122 384 L 2160 385 Q 2170 386 2192 386 Z M 2503 57 L 2505 58 Q 2509 58 2511 53 Q 2513 49 2510 47 Q 2473 16 2442 2 Q 2411 -12 2377 -12 Q 2335 -12 2306 7 Q 2278 27 2278 73 L 2278 304 Q 2278 339 2268 349 Q 2259 359 2226 359 Q 2223 359 2223 367 Q 2223 374 2226 374 Q 2270 375 2297 395 Q 2324 416 2332 452 Q 2333 455 2340 455 Q 2347 455 2347 452 L 2347 375 Q 2396 376 2483 385 Q 2486 385 2488 378 Q 2490 371 2490 362 Q 2490 353 2487 344 Q 2484 336 2480 337 Q 2417 350 2347 352 L 2347 107 Q 2347 67 2367 47 Q 2387 28 2424 28 Q 2468 28 2503 57 Z M 3010 12 Q 3013 12 3013 6 Q 3013 0 3010 0 Q 2985 0 2971 1 L 2916 2 L 2859 1 Q 2845 0 2821 0 Q 2819 0 2819 6 Q 2819 12 2821 12 Q 2858 12 2869 25 Q 2881 39 2881 81 L 2881 235 Q 2881 293 2859 320 Q 2838 348 2793 348 Q 2764 348 2734 333 Q 2704 319 2680 294 L 2680 81 Q 2680 39 2692 25 Q 2704 12 2741 12 Q 2744 12 2744 6 Q 2744 0 2741 0 Q 2716 0 2702 1 L 2647 2 L 2590 1 Q 2576 0 2552 0 Q 2550 0 2550 6 Q 2550 12 2552 12 Q 2589 12 2600 25 Q 2612 39 2612 81 L 2612 595 Q 2612 631 2605 646 Q 2599 662 2582 662 Q 2564 662 2538 649 L 2536 649 Q 2533 649 2531 654 Q 2529 659 2532 660 L 2666 725 L 2669 725 Q 2673 725 2676 722 Q 2680 719 2680 715 L 2680 313 Q 2753 397 2834 397 Q 2889 397 2919 365 Q 2949 333 2949 274 L 2949 81 Q 2949 39 2961 25 Q 2973 12 3010 12 Z M 3079 0 Q 3076 0 3076 6 Q 3076 12 3079 12 Q 3115 12 3127 25 Q 3139 39 3139 81 L 3139 265 Q 3139 301 3132 316 Q 3125 332 3107 332 Q 3090 332 3064 319 L 3063 319 Q 3059 319 3057 324 Q 3055 330 3059 331 L 3195 394 L 3199 395 Q 3202 395 3205 392 Q 3209 389 3209 385 Q 3209 378 3208 345 Q 3207 312 3207 267 L 3207 81 Q 3207 39 3218 25 Q 3230 12 3267 12 Q 3270 12 3270 6 Q 3270 0 3267 0 Q 3243 0 3228 1 L 3173 2 L 3118 1 Q 3103 0 3079 0 Z M 3167 506 Q 3144 506 3130 519 Q 3117 532 3117 555 Q 3117 577 3130 589 Q 3144 602 3167 602 Q 3189 602 3201 589 Q 3214 577 3214 555 Q 3214 532 3201 519 Q 3189 506 3167 506 Z M 3800 12 Q 3803 12 3803 6 Q 3803 0 3800 0 Q 3776 0 3761 1 L 3706 2 L 3651 1 Q 3636 0 3612 0 Q 3609 0 3609 6 Q 3609 12 3612 12 Q 3648 12 3659 25 Q 3671 39 3671 81 L 3671 237 Q 3671 295 3650 322 Q 3629 349 3583 349 Q 3555 349 3525 335 Q 3495 321 3471 296 L 3471 81 Q 3471 39 3482 25 Q 3494 12 3531 12 Q 3534 12 3534 6 Q 3534 0 3531 0 Q 3507 0 3492 1 L 3437 2 L 3381 1 Q 3367 0 3343 0 Q 3340 0 3340 6 Q 3340 12 3343 12 Q 3379 12 3390 25 Q 3402 39 3402 81 L 3402 276 Q 3402 309 3394 323 Q 3387 338 3369 338 Q 3350 338 3316 324 L 3314 324 Q 3311 324 3309 329 Q 3308 334 3311 335 L 3435 394 Q 3437 395 3441 395 Q 3451 395 3460 372 Q 3470 350 3471 314 Q 3544 399 3624 399 Q 3679 399 3709 366 Q 3740 334 3740 276 L 3740 81 Q 3740 39 3751 25 Q 3763 12 3800 12 Z M 4053 36 Q 4122 25 4157 16 Q 4192 8 4219 -16 Q 4246 -40 4246 -85 Q 4246 -133 4212 -179 Q 4178 -225 4120 -254 Q 4062 -282 3996 -282 Q 3924 -282 3879 -249 Q 3835 -215 3835 -163 Q 3835 -125 3861 -88 Q 3888 -50 3945 -10 Q 3879 10 3879 59 Q 3879 86 3899 113 Q 3919 141 3954 162 Q 3914 176 3891 206 Q 3869 237 3869 273 Q 3869 327 3916 360 Q 3964 393 4030 393 Q 4095 393 4134 362 Q 4190 395 4242 395 Q 4245 395 4246 387 Q 4248 380 4248 371 Q 4248 357 4245 344 Q 4242 331 4238 333 Q 4199 349 4169 349 Q 4163 349 4149 347 Q 4176 317 4176 277 Q 4176 242 4155 213 Q 4134 185 4097 168 Q 4061 152 4018 152 Q 3989 152 3967 158 Q 3935 136 3935 101 Q 3935 70 3965 57 Q 3995 45 4053 36 Z M 4002 377 Q 3975 377 3959 357 Q 3943 337 3943 296 Q 3943 240 3971 203 Q 4000 167 4041 167 Q 4067 167 4084 188 Q 4102 210 4102 255 Q 4102 308 4072 342 Q 4042 377 4002 377 Z M 4040 -252 Q 4107 -252 4145 -216 Q 4184 -180 4184 -128 Q 4184 -89 4160 -68 Q 4136 -47 4104 -40 Q 4073 -32 4013 -23 Q 3994 -21 3966 -15 Q 3938 -36 3922 -62 Q 3906 -88 3906 -126 Q 3906 -185 3942 -219 Q 3979 -252 4040 -252 Z" stroke-linecap="round" />
</g>
</svg>